<svg xmlns="http://www.w3.org/2000/svg" fill="none" viewBox="0 0 1323 288"><g filter="url(#a)"><path d="M97.194 199.266 125.544 11.4h57.834V276h-39.312V86.244L115.338 276H76.026L45.03 88.89V276H8.742V11.4h57.834l30.618 187.866Zm154.608 15.876c0 9.576 1.89 16.38 5.67 20.412 4.032 3.78 9.324 5.67 15.876 5.67s11.718-1.89 15.498-5.67c4.032-4.032 6.048-10.836 6.048-20.412V72.258c0-9.576-2.016-16.254-6.048-20.034-3.78-4.032-8.946-6.048-15.498-6.048s-11.844 2.016-15.876 6.048c-3.78 3.78-5.67 10.458-5.67 20.034v142.884Zm-41.58-140.238c0-21.42 5.418-37.8 16.254-49.14 10.836-11.592 26.46-17.388 46.872-17.388s36.036 5.796 46.872 17.388c10.836 11.34 16.254 27.72 16.254 49.14v137.592c0 21.42-5.418 37.926-16.254 49.518-10.836 11.34-26.46 17.01-46.872 17.01s-36.036-5.67-46.872-17.01c-10.836-11.592-16.254-28.098-16.254-49.518V74.904Zm191.451 140.238c0 9.576 1.89 16.38 5.67 20.412 4.032 3.78 9.324 5.67 15.876 5.67s11.718-1.89 15.498-5.67c4.032-4.032 6.048-10.836 6.048-20.412V72.258c0-9.576-2.016-16.254-6.048-20.034-3.78-4.032-8.946-6.048-15.498-6.048s-11.844 2.016-15.876 6.048c-3.78 3.78-5.67 10.458-5.67 20.034v142.884Zm-41.58-140.238c0-21.42 5.418-37.8 16.254-49.14 10.836-11.592 26.46-17.388 46.872-17.388s36.036 5.796 46.872 17.388c10.836 11.34 16.254 27.72 16.254 49.14v137.592c0 21.42-5.418 37.926-16.254 49.518-10.836 11.34-26.46 17.01-46.872 17.01s-36.036-5.67-46.872-17.01c-10.836-11.592-16.254-28.098-16.254-49.518V74.904ZM513.366 11.4h65.772c20.916 0 36.414 5.544 46.494 16.632 10.332 11.088 15.498 27.342 15.498 48.762v133.812c0 21.42-5.166 37.674-15.498 48.762C615.552 270.456 600.054 276 579.138 276h-65.772V11.4Zm41.58 37.8v189h23.436c6.552 0 11.718-1.89 15.498-5.67 3.78-3.78 5.67-10.458 5.67-20.034V74.904c0-9.576-1.89-16.254-5.67-20.034-3.78-3.78-8.946-5.67-15.498-5.67h-23.436ZM726.36 11.4h65.772c20.916 0 36.414 5.544 46.494 16.632 10.332 11.088 15.498 27.342 15.498 48.762v133.812c0 21.42-5.166 37.674-15.498 48.762C828.546 270.456 813.048 276 792.132 276H726.36V11.4Zm41.58 37.8v189h23.436c6.552 0 11.718-1.89 15.498-5.67 3.78-3.78 5.67-10.458 5.67-20.034V74.904c0-9.576-1.89-16.254-5.67-20.034-3.78-3.78-8.946-5.67-15.498-5.67H767.94Zm152.411-37.8v204.12c0 9.576 1.89 16.254 5.67 20.034 4.032 3.78 9.324 5.67 15.876 5.67s11.718-1.89 15.498-5.67c4.032-3.78 6.048-10.458 6.048-20.034V11.4h39.317v201.474c0 21.42-5.297 37.926-15.881 49.518-10.332 11.34-25.704 17.01-46.116 17.01s-35.91-5.67-46.494-17.01c-10.332-11.592-15.498-28.098-15.498-49.518V11.4h41.58Zm231.499 165.942v35.154c0 21.42-5.29 37.926-15.87 49.518-10.34 11.34-25.71 17.01-46.12 17.01-20.41 0-35.91-5.67-46.49-17.01-10.34-11.592-15.5-28.098-15.5-49.518V74.904c0-21.42 5.16-37.8 15.5-49.14 10.58-11.592 26.08-17.388 46.49-17.388 20.41 0 35.78 5.796 46.12 17.388 10.58 11.34 15.87 27.72 15.87 49.14v25.704h-39.31v-28.35c0-9.576-2.02-16.254-6.05-20.034-3.78-4.032-8.94-6.048-15.5-6.048-6.55 0-11.84 2.016-15.87 6.048-3.78 3.78-5.67 10.458-5.67 20.034v142.884c0 9.576 1.89 16.254 5.67 20.034 4.03 3.78 9.32 5.67 15.87 5.67 6.56 0 11.72-1.89 15.5-5.67 4.03-3.78 6.05-10.458 6.05-20.034v-37.8h39.31Zm79.66-6.804-12.85 24.192V276h-41.58V11.4h41.58v115.29l55.19-115.29h40.82l-57.83 117.936L1314.67 276h-42.71l-40.45-105.462Z" fill="#000"/></g><defs><filter id="a" width="1321.93" height="287.026" x=".742" y=".376" color-interpolation-filters="sRGB" filterUnits="userSpaceOnUse"><feFlood flood-opacity="0" result="BackgroundImageFix"/><feBlend in="SourceGraphic" in2="BackgroundImageFix" mode="normal" result="shape"/><feTurbulence baseFrequency="0.25 0.25" numOctaves="3" seed="8873" type="fractalNoise"/><feDisplacementMap width="100%" height="100%" in="shape" result="displacedImage" scale="16" xChannelSelector="R" yChannelSelector="G"/><feMerge result="effect1_texture_360_1025"><feMergeNode in="displacedImage"/></feMerge></filter></defs></svg>