<svg width="51" height="228" viewBox="0 0 51 228" fill="none" xmlns="http://www.w3.org/2000/svg">
<path d="M22.197 227.652L9.45693 226.711L7.09766 225.3V222.949V219.186L8.04137 215.423L9.45693 214.012H11.3443H15.1192H17.0066L17.9503 211.66V208.838H16.0629V206.016H17.0066L17.9503 204.605V202.723L17.0066 200.842V199.901L16.0629 197.549V195.198V192.846L15.1192 183.439L14.1755 176.854V170.739L12.7599 166.036L14.1755 163.684L12.7599 156.158V152.866L11.8162 150.984L10.4006 147.221L11.8162 142.988L10.4006 140.636L11.8162 137.344L10.4006 119.47L9.45693 109.593L8.51322 102.067V97.3636L7.09766 85.6047L6.15395 81.8419L7.09766 79.9605L6.15395 79.0198V77.6087L7.09766 75.2569L6.15395 67.2609L5.21024 62.087L3.32282 57.3834L5.21024 52.2095L4.26653 48.917V44.6838L1.43541 7.05534L0.491699 4.70356L1.43541 1.88142L2.85097 0.940711H8.04137L14.6473 0L16.0629 1.88142L17.4785 0.940711H20.3096L22.197 1.88142L23.6126 0.940711L25.5 1.88142L28.3311 0.940711L29.7467 1.88142L32.1059 0.940711L33.5215 1.88142H35.8808L37.7682 0.940711H42.4867H43.9023L50.0364 1.88142V3.76285L44.846 57.3834L40.1275 107.241L39.1838 112.885L38.24 119.47V128.877V137.344L36.8245 140.636V146.281L35.4089 150.984V168.858L33.9934 172.15V178.265L32.5778 181.557V183.439L31.6341 188.142V190.494L30.6904 192.846V195.198V196.609V198.49L29.7467 200.842L27.8592 202.723V204.605V206.016L28.803 207.427H29.7467L27.8592 208.838L28.803 209.779V211.66V214.012H36.8245L38.24 215.423V219.186V225.3L36.8245 227.652L33.9934 226.711L28.803 227.652L25.5 226.711L22.197 227.652Z" fill="white"/>
</svg>
